<svg width="256px" height="256px" viewBox="0 0 24.00 24.00" version="1.1" xmlns="http://www.w3.org/2000/svg" xmlns:xlink="http://www.w3.org/1999/xlink" fill="#000000" transform="matrix(1, 0, 0, 1, 0, 0)rotate(0)"><g id="SVGRepo_bgCarrier" stroke-width="0"></g><g id="SVGRepo_tracerCarrier" stroke-linecap="round" stroke-linejoin="round" stroke="#CCCCCC" stroke-width="1.584"></g><g id="SVGRepo_iconCarrier"> <!-- Uploaded to: SVG Repo, www.svgrepo.com, Generator: SVG Repo Mixer Tools --> <title>ic_fluent_note_24_filled</title> <desc>Created with Sketch.</desc> <g id="ðŸ”-Product-Icons" stroke-width="0.00024000000000000003" fill="none" fill-rule="evenodd"> <g id="ic_fluent_note_24_filled" fill="#FFC107" fill-rule="nonzero"> <path d="M17.75,3 C19.5449254,3 21,4.45507456 21,6.25 L21,13 L16.25,13 C14.4550746,13 13,14.4550746 13,16.25 L13,21 L6.25,21 C4.45507456,21 3,19.5449254 3,17.75 L3,6.25 C3,4.45507456 4.45507456,3 6.25,3 L17.75,3 Z M20.56,14.5 L14.5,20.56 L14.5,16.25 C14.5,15.2835017 15.2835017,14.5 16.25,14.5 L20.56,14.5 Z" id="ðŸŽ¨-Color"> </path> </g> </g> </g></svg>